# File created by Blade
# Date/Time:  Wed Sep 24 20:15:16 2014
# Frame Rate: 120.000 fps
#------------------------------------------------------
:FULLY-SPECIFIED
:DEGREES
2937
root -6.176971 32.754546 -4.888644 16.665408 -1.687731 -2.886543
Spine -20.797886 -2.323659 2.893528
Head 3.138376 -9.738580 7.732982
LeftShoulder -6.063701 19.572199 11.463371
LeftArm 21.460820 27.616677 -75.313817
LeftForeArm -2.504121 -0.000000 20.558564
LeftHand -22.601991 0.000000 -4.545865
LeftHandThumb1 -26.253704 0.000000 33.147579
RightShoulder -22.592743 13.156883 -14.183189
RightArm -35.402294 57.396172 55.670823
RightForeArm 53.134165 -0.000000 108.011345
RightHand 3.998796 -0.000000 -27.106282
RightHandThumb1 -24.326973 -0.000000 -32.862282
LeftUpLeg -12.423587 10.085340 4.387025
LeftLeg 0.550393 -0.000000 -0.000000
LeftFoot -13.474218 8.517618 -18.693996
LeftToeBase 9.475171 -0.000000 -0.000000
RightUpLeg -14.452917 -3.654639 -0.626934
RightLeg 3.258249 -0.000000 -0.000000
RightFoot -8.736849 -0.795588 -12.901351
RightToeBase -0.550631 -0.000000 0.000000
2938
root -6.178561 32.754750 -4.885667 16.664085 -1.650945 -2.888898
Spine -20.780106 -2.326947 2.849423
Head 3.120438 -9.806929 7.813893
LeftShoulder -6.082905 19.567030 11.464040
LeftArm 21.482927 27.588415 -75.326758
LeftForeArm -2.480222 0.000000 20.600272
LeftHand -22.611007 -0.000000 -4.480064
LeftHandThumb1 -26.253704 0.000000 33.147579
RightShoulder -22.620222 13.116626 -14.282394
RightArm -35.724178 57.302879 55.216162
RightForeArm 53.130358 -0.000000 107.862306
RightHand 3.956084 0.000000 -27.301368
RightHandThumb1 -24.326973 -0.000000 -32.862282
LeftUpLeg -12.420582 10.059340 4.401508
LeftLeg 0.543022 -0.000000 -0.000000
LeftFoot -13.459997 8.511325 -18.698528
LeftToeBase 9.446493 -0.000000 -0.000000
RightUpLeg -14.457708 -3.641133 -0.627335
RightLeg 3.293406 -0.000000 -0.000000
RightFoot -8.750043 -0.816831 -12.856160
RightToeBase -0.522756 -0.000000 0.000000
2939
root -6.180436 32.755344 -4.882957 16.665437 -1.614699 -2.889220
Spine -20.768674 -2.329987 2.812338
Head 3.106453 -9.858230 7.868905
LeftShoulder -6.103988 19.557534 11.451832
LeftArm 21.508402 27.592559 -75.310640
LeftForeArm -2.476605 0.000000 20.630899
LeftHand -22.599936 -0.000000 -4.507567
LeftHandThumb1 -26.253704 0.000000 33.147579
RightShoulder -22.634609 13.037553 -14.400773
RightArm -36.103903 57.203645 54.739264
RightForeArm 53.140863 -0.000000 107.699933
RightHand 3.822795 -0.000000 -27.397425
RightHandThumb1 -24.326973 -0.000000 -32.862282
LeftUpLeg -12.424770 10.016880 4.417226
LeftLeg 0.548073 -0.000000 -0.000000
LeftFoot -13.465721 8.511401 -18.702990
LeftToeBase 9.495330 -0.000000 -0.000000
RightUpLeg -14.450241 -3.644705 -0.622052
RightLeg 3.294306 -0.000000 -0.000000
RightFoot -8.744584 -0.836452 -12.827057
RightToeBase -0.548262 -0.000000 0.000000
2940
root -6.181642 32.755913 -4.880031 16.665203 -1.574623 -2.884139
Spine -20.753498 -2.345481 2.770819
Head 3.082766 -9.913471 7.945546
LeftShoulder -6.131090 19.535880 11.441934
LeftArm 21.513179 27.587492 -75.312750
LeftForeArm -2.471103 -0.000000 20.661023
LeftHand -22.574813 -0.000000 -4.498202
LeftHandThumb1 -26.253704 0.000000 33.147579
RightShoulder -22.644137 12.949509 -14.507587
RightArm -36.460348 57.105016 54.295071
RightForeArm 53.086234 0.000000 107.492307
RightHand 3.753305 -0.000000 -27.426248
RightHandThumb1 -24.326973 -0.000000 -32.862282
LeftUpLeg -12.423465 9.972737 4.424106
LeftLeg 0.540533 -0.000000 -0.000000
LeftFoot -13.471477 8.533767 -18.554730
LeftToeBase 9.595112 -0.000000 -0.000000
RightUpLeg -14.442728 -3.659241 -0.620095
RightLeg 3.301171 -0.000000 -0.000000
RightFoot -8.742409 -0.857338 -12.825644
RightToeBase -0.540852 -0.000000 0.000000
2941
root -6.182154 32.756794 -4.877003 16.664998 -1.543298 -2.879755
Spine -20.739236 -2.345899 2.724033
Head 3.062488 -9.995742 8.003475
LeftShoulder -6.147719 19.520795 11.427243
LeftArm 21.521455 27.585143 -75.303950
LeftForeArm -2.446380 -0.000000 20.703019
LeftHand -22.573642 0.000000 -4.506017
LeftHandThumb1 -26.253704 0.000000 33.147579
RightShoulder -22.646232 12.852546 -14.608448
RightArm -36.909201 57.057756 53.739704
RightForeArm 53.182331 0.000000 107.241214
RightHand 3.683570 -0.000000 -27.330695
RightHandThumb1 -24.326973 -0.000000 -32.862282
LeftUpLeg -12.421759 9.917468 4.438265
LeftLeg 0.542297 -0.000000 -0.000000
LeftFoot -13.458157 8.536145 -18.723947
LeftToeBase 9.474757 -0.000000 -0.000000
RightUpLeg -14.433863 -3.657869 -0.624724
RightLeg 3.305013 -0.000000 -0.000000
RightFoot -8.744222 -0.873390 -12.788536
RightToeBase -0.522869 -0.000000 0.000000
2942
root -6.183095 32.757330 -4.871794 16.667585 -1.525601 -2.879725
Spine -20.733448 -2.330413 2.674390
Head 3.044529 -10.069525 8.078966
LeftShoulder -6.169364 19.500528 11.425848
LeftArm 21.512606 27.569013 -75.325907
LeftForeArm -2.386542 -0.000000 20.725860
LeftHand -22.554371 0.000000 -4.554060
LeftHandThumb1 -26.253704 0.000000 33.147579
RightShoulder -22.682247 12.739102 -14.687693
RightArm -37.244866 56.954817 53.281890
RightForeArm 53.161160 -0.000000 107.006856
RightHand 3.490857 -0.000000 -27.485452
RightHandThumb1 -24.326973 -0.000000 -32.862282
LeftUpLeg -12.410958 9.917652 4.440366
LeftLeg 0.523877 -0.000000 -0.000000
LeftFoot -13.454774 8.531832 -18.586927
LeftToeBase 9.613736 -0.000000 -0.000000
RightUpLeg -14.428983 -3.663764 -0.621228
RightLeg 3.312263 -0.000000 -0.000000
RightFoot -8.741117 -0.887520 -12.817936
RightToeBase -0.567038 -0.000000 0.000000
2943
root -6.186024 32.757604 -4.867463 16.658991 -1.479038 -2.883846
Spine -20.706204 -2.326826 2.627355
Head 3.011054 -10.172541 8.145663
LeftShoulder -6.174131 19.490602 11.422634
LeftArm 21.540301 27.569584 -75.310184
LeftForeArm -2.380773 -0.000000 20.748015
LeftHand -22.588421 0.000000 -4.598780
LeftHandThumb1 -26.253704 0.000000 33.147579
RightShoulder -22.731359 12.605026 -14.741556
RightArm -37.577037 56.895868 52.795747
RightForeArm 53.217530 0.000000 106.711438
RightHand 3.501073 -0.000000 -27.471054
RightHandThumb1 -24.326973 -0.000000 -32.862282
LeftUpLeg -12.408815 9.907469 4.461011
LeftLeg 0.538431 -0.000000 -0.000000
LeftFoot -13.435113 8.470523 -18.756717
LeftToeBase 9.505814 -0.000000 -0.000000
RightUpLeg -14.406454 -3.711568 -0.603660
RightLeg 3.310237 -0.000000 -0.000000
RightFoot -8.751928 -0.857660 -12.766079
RightToeBase -0.554208 -0.000000 0.000000
2944
root -6.187014 32.757879 -4.863481 16.655595 -1.438380 -2.884056
Spine -20.687642 -2.331433 2.586537
Head 2.984290 -10.241437 8.214908
LeftShoulder -6.183152 19.487036 11.412048
LeftArm 21.550706 27.559982 -75.309685
LeftForeArm -2.383702 -0.000000 20.776043
LeftHand -22.564522 0.000000 -4.613726
LeftHandThumb1 -26.253704 0.000000 33.147579
RightShoulder -22.779844 12.459475 -14.805024
RightArm -37.869747 56.856633 52.386594
RightForeArm 53.222410 -0.000000 106.392788
RightHand 3.405208 0.000000 -27.591108
RightHandThumb1 -24.326973 -0.000000 -32.862282
LeftUpLeg -12.406443 9.893457 4.469745
LeftLeg 0.538207 -0.000000 -0.000000
LeftFoot -13.414996 8.446505 -18.740031
LeftToeBase 9.467778 -0.000000 -0.000000
RightUpLeg -14.395126 -3.726303 -0.597335
RightLeg 3.319043 -0.000000 -0.000000
RightFoot -8.757175 -0.874824 -12.746136
RightToeBase -0.560016 -0.000000 0.000000
2945
root -6.187554 32.757875 -4.859073 16.652242 -1.394492 -2.882116
Spine -20.668494 -2.334934 2.545982
Head 2.955060 -10.312751 8.268120
LeftShoulder -6.184664 19.477638 11.405953
LeftArm 21.541753 27.538191 -75.326239
LeftForeArm -2.340288 0.000000 20.811720
LeftHand -22.551924 -0.000000 -4.639839
LeftHandThumb1 -26.253704 0.000000 33.147579
RightShoulder -22.830102 12.348942 -14.859845
RightArm -38.290622 56.843635 51.802834
RightForeArm 53.291109 -0.000000 106.012185
RightHand 3.523109 -0.000000 -27.454455
RightHandThumb1 -24.326973 -0.000000 -32.862282
LeftUpLeg -12.399923 9.879356 4.475667
LeftLeg 0.529797 -0.000000 -0.000000
LeftFoot -13.410967 8.428065 -18.725118
LeftToeBase 9.507190 -0.000000 -0.000000
RightUpLeg -14.382087 -3.753735 -0.590685
RightLeg 3.327002 -0.000000 -0.000000
RightFoot -8.772703 -0.899542 -12.782642
RightToeBase -0.531937 -0.000000 0.000000
2946
root -6.188835 32.758107 -4.855463 16.653929 -1.349485 -2.878863
Spine -20.658243 -2.373038 2.517101
Head 2.942801 -10.348336 8.311699
LeftShoulder -6.203213 19.474571 11.396568
LeftArm 21.508782 27.475858 -75.369893
LeftForeArm -2.352862 -0.000000 20.842429
LeftHand -22.566482 -0.000000 -4.605643
LeftHandThumb1 -26.253704 0.000000 33.147579
RightShoulder -22.871039 12.263196 -14.897965
RightArm -38.641708 56.769230 51.341022
RightForeArm 53.308087 0.000000 105.685397
RightHand 3.646607 -0.000000 -27.629475
RightHandThumb1 -24.326973 -0.000000 -32.862282
LeftUpLeg -12.391248 9.836133 4.484659
LeftLeg 0.501561 -0.000000 -0.000000
LeftFoot -13.406344 8.443795 -18.596357
LeftToeBase 9.600815 -0.000000 -0.000000
RightUpLeg -14.371571 -3.766895 -0.586204
RightLeg 3.327836 -0.000000 -0.000000
RightFoot -8.766122 -0.928842 -12.768980
RightToeBase -0.563641 -0.000000 0.000000
2947
root -6.190614 32.757826 -4.851452 16.651989 -1.307329 -2.881376
Spine -20.644363 -2.411028 2.499258
Head 2.928714 -10.379241 8.334398
LeftShoulder -6.218659 19.466292 11.384514
LeftArm 21.458819 27.424829 -75.416009
LeftForeArm -2.329399 0.000000 20.882916
LeftHand -22.590315 -0.000000 -4.578439
LeftHandThumb1 -26.253704 0.000000 33.147579
RightShoulder -22.923383 12.192116 -14.923794
RightArm -39.003062 56.773950 50.818623
RightForeArm 53.344391 -0.000000 105.307943
RightHand 3.631728 -0.000000 -27.557366
RightHandThumb1 -24.326973 -0.000000 -32.862282
LeftUpLeg -12.389604 9.837200 4.496178
LeftLeg 0.501743 -0.000000 -0.000000
LeftFoot -13.374994 8.400367 -18.700778
LeftToeBase 9.490179 -0.000000 -0.000000
RightUpLeg -14.360665 -3.788641 -0.574217
RightLeg 3.334527 -0.000000 -0.000000
RightFoot -8.782634 -0.937934 -12.738157
RightToeBase -0.538891 -0.000000 0.000000
2948
root -6.191783 32.757625 -4.847478 16.653861 -1.257991 -2.881673
Spine -20.639400 -2.470276 2.494548
Head 2.925378 -10.371204 8.359617
LeftShoulder -6.234200 19.469351 11.370702
LeftArm 21.409419 27.382164 -75.460032
LeftForeArm -2.338879 -0.000000 20.908543
LeftHand -22.588485 -0.000000 -4.561293
LeftHandThumb1 -26.253704 0.000000 33.147579
RightShoulder -22.959407 12.135879 -14.957247
RightArm -39.432743 56.777819 50.272828
RightForeArm 53.309641 0.000000 104.959141
RightHand 3.578962 -0.000000 -27.691135
RightHandThumb1 -24.326973 -0.000000 -32.862282
LeftUpLeg -12.397210 9.850640 4.497924
LeftLeg 0.506518 -0.000000 -0.000000
LeftFoot -13.371752 8.332666 -18.727922
LeftToeBase 9.501230 -0.000000 -0.000000
RightUpLeg -14.353099 -3.813731 -0.562661
RightLeg 3.341408 -0.000000 -0.000000
RightFoot -8.781619 -0.970185 -12.751807
RightToeBase -0.598112 -0.000000 0.000000
